<?xml version="1.0" encoding="UTF-8" standalone="no"?>
<!DOCTYPE svg PUBLIC "-//W3C//DTD SVG 1.1//EN"
 "http://www.w3.org/Graphics/SVG/1.1/DTD/svg11.dtd">
<!-- Generated by graphviz version 2.47.3 (20210619.1520)
 -->
<!-- Title: dependencies Pages: 1 -->
<svg width="2997pt" height="247pt"
 viewBox="0.00 0.00 2997.00 246.80" xmlns="http://www.w3.org/2000/svg" xmlns:xlink="http://www.w3.org/1999/xlink">
<g id="graph0" class="graph" transform="scale(1 1) rotate(0) translate(4 242.8)">
<title>dependencies</title>
<polygon fill="white" stroke="transparent" points="-4,4 -4,-242.8 2993,-242.8 2993,4 -4,4"/>
<text text-anchor="middle" x="1494.5" y="-8.2" font-family="sans-serif" font-size="14.00">dependencies</text>
<g id="clust1" class="cluster">
<title>cluster_AppModule</title>
<polygon fill="none" stroke="black" stroke-dasharray="1,5" points="8,-32.8 8,-230.8 2981,-230.8 2981,-32.8 8,-32.8"/>
</g>
<g id="clust20" class="cluster">
<title>cluster_AppModule_providers</title>
<polygon fill="none" stroke="black" points="2617,-40.8 2617,-92.8 2973,-92.8 2973,-40.8 2617,-40.8"/>
</g>
<g id="clust17" class="cluster">
<title>cluster_AppModule_imports</title>
<polygon fill="none" stroke="black" points="2340,-40.8 2340,-92.8 2609,-92.8 2609,-40.8 2340,-40.8"/>
</g>
<g id="clust19" class="cluster">
<title>cluster_AppModule_bootstrap</title>
<polygon fill="none" stroke="black" points="1578,-170.8 1578,-222.8 1702,-222.8 1702,-170.8 1578,-170.8"/>
</g>
<g id="clust2" class="cluster">
<title>cluster_AppModule_declarations</title>
<polygon fill="none" stroke="black" points="16,-40.8 16,-92.8 2332,-92.8 2332,-40.8 16,-40.8"/>
</g>
<!-- AppComponent -->
<g id="node1" class="node">
<title>AppComponent</title>
<polygon fill="#ffffb3" stroke="black" points="2323.94,-84.8 2218.06,-84.8 2218.06,-48.8 2323.94,-48.8 2323.94,-84.8"/>
<text text-anchor="middle" x="2271" y="-62.6" font-family="Times,serif" font-size="14.00">AppComponent</text>
</g>
<!-- AppModule -->
<g id="node15" class="node">
<title>AppModule</title>
<polygon fill="#8dd3c7" stroke="black" points="1681.66,-149.8 1678.66,-153.8 1657.66,-153.8 1654.66,-149.8 1598.34,-149.8 1598.34,-113.8 1681.66,-113.8 1681.66,-149.8"/>
<text text-anchor="middle" x="1640" y="-127.6" font-family="Times,serif" font-size="14.00">AppModule</text>
</g>
<!-- AppComponent&#45;&gt;AppModule -->
<g id="edge1" class="edge">
<title>AppComponent&#45;&gt;AppModule</title>
<path fill="none" stroke="black" d="M2271,-85.02C2271,-103.63 2271,-129.8 2271,-129.8 2271,-129.8 1691.89,-129.8 1691.89,-129.8"/>
<polygon fill="black" stroke="black" points="1691.89,-126.3 1681.89,-129.8 1691.89,-133.3 1691.89,-126.3"/>
</g>
<!-- ChatComponent -->
<g id="node2" class="node">
<title>ChatComponent</title>
<polygon fill="#ffffb3" stroke="black" points="2199.77,-84.8 2092.23,-84.8 2092.23,-48.8 2199.77,-48.8 2199.77,-84.8"/>
<text text-anchor="middle" x="2146" y="-62.6" font-family="Times,serif" font-size="14.00">ChatComponent</text>
</g>
<!-- ChatComponent&#45;&gt;AppModule -->
<g id="edge2" class="edge">
<title>ChatComponent&#45;&gt;AppModule</title>
<path fill="none" stroke="black" d="M2146,-84.82C2146,-102.17 2146,-125.8 2146,-125.8 2146,-125.8 1691.84,-125.8 1691.84,-125.8"/>
<polygon fill="black" stroke="black" points="1691.84,-122.3 1681.84,-125.8 1691.84,-129.3 1691.84,-122.3"/>
</g>
<!-- DataPrivacyComponent -->
<g id="node3" class="node">
<title>DataPrivacyComponent</title>
<polygon fill="#ffffb3" stroke="black" points="2074.02,-84.8 1923.98,-84.8 1923.98,-48.8 2074.02,-48.8 2074.02,-84.8"/>
<text text-anchor="middle" x="1999" y="-62.6" font-family="Times,serif" font-size="14.00">DataPrivacyComponent</text>
</g>
<!-- DataPrivacyComponent&#45;&gt;AppModule -->
<g id="edge3" class="edge">
<title>DataPrivacyComponent&#45;&gt;AppModule</title>
<path fill="none" stroke="black" d="M1999,-84.81C1999,-100.85 1999,-121.8 1999,-121.8 1999,-121.8 1691.88,-121.8 1691.88,-121.8"/>
<polygon fill="black" stroke="black" points="1691.88,-118.3 1681.88,-121.8 1691.88,-125.3 1691.88,-118.3"/>
</g>
<!-- FooterComponent -->
<g id="node4" class="node">
<title>FooterComponent</title>
<polygon fill="#ffffb3" stroke="black" points="1905.88,-84.8 1788.12,-84.8 1788.12,-48.8 1905.88,-48.8 1905.88,-84.8"/>
<text text-anchor="middle" x="1847" y="-62.6" font-family="Times,serif" font-size="14.00">FooterComponent</text>
</g>
<!-- FooterComponent&#45;&gt;AppModule -->
<g id="edge4" class="edge">
<title>FooterComponent&#45;&gt;AppModule</title>
<path fill="none" stroke="black" d="M1847,-84.92C1847,-99.58 1847,-117.8 1847,-117.8 1847,-117.8 1691.89,-117.8 1691.89,-117.8"/>
<polygon fill="black" stroke="black" points="1691.89,-114.3 1681.89,-117.8 1691.89,-121.3 1691.89,-114.3"/>
</g>
<!-- HeaderComponent -->
<g id="node5" class="node">
<title>HeaderComponent</title>
<polygon fill="#ffffb3" stroke="black" points="1769.74,-84.8 1648.26,-84.8 1648.26,-48.8 1769.74,-48.8 1769.74,-84.8"/>
<text text-anchor="middle" x="1709" y="-62.6" font-family="Times,serif" font-size="14.00">HeaderComponent</text>
</g>
<!-- HeaderComponent&#45;&gt;AppModule -->
<g id="edge5" class="edge">
<title>HeaderComponent&#45;&gt;AppModule</title>
<path fill="none" stroke="black" d="M1664.98,-84.91C1664.98,-84.91 1664.98,-103.79 1664.98,-103.79"/>
<polygon fill="black" stroke="black" points="1661.48,-103.79 1664.98,-113.79 1668.48,-103.79 1661.48,-103.79"/>
</g>
<!-- HomeComponent -->
<g id="node6" class="node">
<title>HomeComponent</title>
<polygon fill="#ffffb3" stroke="black" points="1629.55,-84.8 1514.45,-84.8 1514.45,-48.8 1629.55,-48.8 1629.55,-84.8"/>
<text text-anchor="middle" x="1572" y="-62.6" font-family="Times,serif" font-size="14.00">HomeComponent</text>
</g>
<!-- HomeComponent&#45;&gt;AppModule -->
<g id="edge6" class="edge">
<title>HomeComponent&#45;&gt;AppModule</title>
<path fill="none" stroke="black" d="M1613.97,-84.91C1613.97,-84.91 1613.97,-103.79 1613.97,-103.79"/>
<polygon fill="black" stroke="black" points="1610.47,-103.79 1613.97,-113.79 1617.47,-103.79 1610.47,-103.79"/>
</g>
<!-- LegalNoticeComponent -->
<g id="node7" class="node">
<title>LegalNoticeComponent</title>
<polygon fill="#ffffb3" stroke="black" points="1496.02,-84.8 1345.98,-84.8 1345.98,-48.8 1496.02,-48.8 1496.02,-84.8"/>
<text text-anchor="middle" x="1421" y="-62.6" font-family="Times,serif" font-size="14.00">LegalNoticeComponent</text>
</g>
<!-- LegalNoticeComponent&#45;&gt;AppModule -->
<g id="edge7" class="edge">
<title>LegalNoticeComponent&#45;&gt;AppModule</title>
<path fill="none" stroke="black" d="M1421,-84.92C1421,-99.58 1421,-117.8 1421,-117.8 1421,-117.8 1588.29,-117.8 1588.29,-117.8"/>
<polygon fill="black" stroke="black" points="1588.29,-121.3 1598.29,-117.8 1588.29,-114.3 1588.29,-121.3"/>
</g>
<!-- LoginComponent -->
<g id="node8" class="node">
<title>LoginComponent</title>
<polygon fill="#ffffb3" stroke="black" points="1327.28,-84.8 1212.72,-84.8 1212.72,-48.8 1327.28,-48.8 1327.28,-84.8"/>
<text text-anchor="middle" x="1270" y="-62.6" font-family="Times,serif" font-size="14.00">LoginComponent</text>
</g>
<!-- LoginComponent&#45;&gt;AppModule -->
<g id="edge8" class="edge">
<title>LoginComponent&#45;&gt;AppModule</title>
<path fill="none" stroke="black" d="M1270,-84.81C1270,-100.85 1270,-121.8 1270,-121.8 1270,-121.8 1588.28,-121.8 1588.28,-121.8"/>
<polygon fill="black" stroke="black" points="1588.28,-125.3 1598.28,-121.8 1588.28,-118.3 1588.28,-125.3"/>
</g>
<!-- NavigationComponent -->
<g id="node9" class="node">
<title>NavigationComponent</title>
<polygon fill="#ffffb3" stroke="black" points="1194.54,-84.8 1051.46,-84.8 1051.46,-48.8 1194.54,-48.8 1194.54,-84.8"/>
<text text-anchor="middle" x="1123" y="-62.6" font-family="Times,serif" font-size="14.00">NavigationComponent</text>
</g>
<!-- NavigationComponent&#45;&gt;AppModule -->
<g id="edge9" class="edge">
<title>NavigationComponent&#45;&gt;AppModule</title>
<path fill="none" stroke="black" d="M1123,-84.82C1123,-102.17 1123,-125.8 1123,-125.8 1123,-125.8 1588.13,-125.8 1588.13,-125.8"/>
<polygon fill="black" stroke="black" points="1588.13,-129.3 1598.13,-125.8 1588.13,-122.3 1588.13,-129.3"/>
</g>
<!-- ProductConfirmationDialogComponent -->
<g id="node10" class="node">
<title>ProductConfirmationDialogComponent</title>
<polygon fill="#ffffb3" stroke="black" points="1033.42,-84.8 794.58,-84.8 794.58,-48.8 1033.42,-48.8 1033.42,-84.8"/>
<text text-anchor="middle" x="914" y="-62.6" font-family="Times,serif" font-size="14.00">ProductConfirmationDialogComponent</text>
</g>
<!-- ProductConfirmationDialogComponent&#45;&gt;AppModule -->
<g id="edge10" class="edge">
<title>ProductConfirmationDialogComponent&#45;&gt;AppModule</title>
<path fill="none" stroke="black" d="M914,-85.02C914,-103.63 914,-129.8 914,-129.8 914,-129.8 1588.09,-129.8 1588.09,-129.8"/>
<polygon fill="black" stroke="black" points="1588.09,-133.3 1598.09,-129.8 1588.09,-126.3 1588.09,-133.3"/>
</g>
<!-- ProfileComponent -->
<g id="node11" class="node">
<title>ProfileComponent</title>
<polygon fill="#ffffb3" stroke="black" points="776.93,-84.8 657.07,-84.8 657.07,-48.8 776.93,-48.8 776.93,-84.8"/>
<text text-anchor="middle" x="717" y="-62.6" font-family="Times,serif" font-size="14.00">ProfileComponent</text>
</g>
<!-- ProfileComponent&#45;&gt;AppModule -->
<g id="edge11" class="edge">
<title>ProfileComponent&#45;&gt;AppModule</title>
<path fill="none" stroke="black" d="M717,-85.11C717,-104.95 717,-133.8 717,-133.8 717,-133.8 1588.25,-133.8 1588.25,-133.8"/>
<polygon fill="black" stroke="black" points="1588.25,-137.3 1598.25,-133.8 1588.25,-130.3 1588.25,-137.3"/>
</g>
<!-- ProfileProductDialogComponent -->
<g id="node12" class="node">
<title>ProfileProductDialogComponent</title>
<polygon fill="#ffffb3" stroke="black" points="639.58,-84.8 438.42,-84.8 438.42,-48.8 639.58,-48.8 639.58,-84.8"/>
<text text-anchor="middle" x="539" y="-62.6" font-family="Times,serif" font-size="14.00">ProfileProductDialogComponent</text>
</g>
<!-- ProfileProductDialogComponent&#45;&gt;AppModule -->
<g id="edge12" class="edge">
<title>ProfileProductDialogComponent&#45;&gt;AppModule</title>
<path fill="none" stroke="black" d="M539,-85.08C539,-106.12 539,-137.8 539,-137.8 539,-137.8 1588.18,-137.8 1588.18,-137.8"/>
<polygon fill="black" stroke="black" points="1588.18,-141.3 1598.18,-137.8 1588.18,-134.3 1588.18,-141.3"/>
</g>
<!-- ProfileProductOverviewComponent -->
<g id="node13" class="node">
<title>ProfileProductOverviewComponent</title>
<polygon fill="#ffffb3" stroke="black" points="420.17,-84.8 201.83,-84.8 201.83,-48.8 420.17,-48.8 420.17,-84.8"/>
<text text-anchor="middle" x="311" y="-62.6" font-family="Times,serif" font-size="14.00">ProfileProductOverviewComponent</text>
</g>
<!-- ProfileProductOverviewComponent&#45;&gt;AppModule -->
<g id="edge13" class="edge">
<title>ProfileProductOverviewComponent&#45;&gt;AppModule</title>
<path fill="none" stroke="black" d="M311,-84.96C311,-107.15 311,-141.8 311,-141.8 311,-141.8 1588.03,-141.8 1588.03,-141.8"/>
<polygon fill="black" stroke="black" points="1588.03,-145.3 1598.03,-141.8 1588.03,-138.3 1588.03,-145.3"/>
</g>
<!-- ShoppingCartComponent -->
<g id="node14" class="node">
<title>ShoppingCartComponent</title>
<polygon fill="#ffffb3" stroke="black" points="183.61,-84.8 24.39,-84.8 24.39,-48.8 183.61,-48.8 183.61,-84.8"/>
<text text-anchor="middle" x="104" y="-62.6" font-family="Times,serif" font-size="14.00">ShoppingCartComponent</text>
</g>
<!-- ShoppingCartComponent&#45;&gt;AppModule -->
<g id="edge14" class="edge">
<title>ShoppingCartComponent&#45;&gt;AppModule</title>
<path fill="none" stroke="black" d="M104,-85.12C104,-108.46 104,-145.8 104,-145.8 104,-145.8 1588.12,-145.8 1588.12,-145.8"/>
<polygon fill="black" stroke="black" points="1588.12,-149.3 1598.12,-145.8 1588.12,-142.3 1588.12,-149.3"/>
</g>
<!-- AppComponent  -->
<g id="node18" class="node">
<title>AppComponent </title>
<polygon fill="#80b1d3" stroke="black" points="1694.44,-214.8 1585.56,-214.8 1585.56,-178.8 1694.44,-178.8 1694.44,-214.8"/>
<text text-anchor="middle" x="1640" y="-192.6" font-family="Times,serif" font-size="14.00">AppComponent </text>
</g>
<!-- AppModule&#45;&gt;AppComponent  -->
<g id="edge17" class="edge">
<title>AppModule&#45;&gt;AppComponent </title>
<path fill="none" stroke="black" stroke-dasharray="1,5" d="M1640,-149.91C1640,-149.91 1640,-168.79 1640,-168.79"/>
<polygon fill="black" stroke="black" points="1636.5,-168.79 1640,-178.79 1643.5,-168.79 1636.5,-168.79"/>
</g>
<!-- AppRoutingModule -->
<g id="node16" class="node">
<title>AppRoutingModule</title>
<polygon fill="#8dd3c7" stroke="black" points="2601.27,-84.8 2598.27,-88.8 2577.27,-88.8 2574.27,-84.8 2472.73,-84.8 2472.73,-48.8 2601.27,-48.8 2601.27,-84.8"/>
<text text-anchor="middle" x="2537" y="-62.6" font-family="Times,serif" font-size="14.00">AppRoutingModule</text>
</g>
<!-- AppRoutingModule&#45;&gt;AppModule -->
<g id="edge15" class="edge">
<title>AppRoutingModule&#45;&gt;AppModule</title>
<path fill="none" stroke="black" d="M2537,-85.08C2537,-106.12 2537,-137.8 2537,-137.8 2537,-137.8 1691.76,-137.8 1691.76,-137.8"/>
<polygon fill="black" stroke="black" points="1691.76,-134.3 1681.76,-137.8 1691.76,-141.3 1691.76,-134.3"/>
</g>
<!-- MaterialModule -->
<g id="node17" class="node">
<title>MaterialModule</title>
<polygon fill="#8dd3c7" stroke="black" points="2454.47,-84.8 2451.47,-88.8 2430.47,-88.8 2427.47,-84.8 2347.53,-84.8 2347.53,-48.8 2454.47,-48.8 2454.47,-84.8"/>
<text text-anchor="middle" x="2401" y="-62.6" font-family="Times,serif" font-size="14.00">MaterialModule</text>
</g>
<!-- MaterialModule&#45;&gt;AppModule -->
<g id="edge16" class="edge">
<title>MaterialModule&#45;&gt;AppModule</title>
<path fill="none" stroke="black" d="M2401,-85.11C2401,-104.95 2401,-133.8 2401,-133.8 2401,-133.8 1691.73,-133.8 1691.73,-133.8"/>
<polygon fill="black" stroke="black" points="1691.73,-130.3 1681.73,-133.8 1691.73,-137.3 1691.73,-130.3"/>
</g>
<!-- AuthInterceptorService -->
<g id="node19" class="node">
<title>AuthInterceptorService</title>
<ellipse fill="#fdb462" stroke="black" cx="2863" cy="-66.8" rx="101.82" ry="18"/>
<text text-anchor="middle" x="2863" y="-62.6" font-family="Times,serif" font-size="14.00">AuthInterceptorService</text>
</g>
<!-- AuthInterceptorService&#45;&gt;AppModule -->
<g id="edge18" class="edge">
<title>AuthInterceptorService&#45;&gt;AppModule</title>
<path fill="none" stroke="black" d="M2863,-85.12C2863,-108.46 2863,-145.8 2863,-145.8 2863,-145.8 1691.74,-145.8 1691.74,-145.8"/>
<polygon fill="black" stroke="black" points="1691.74,-142.3 1681.74,-145.8 1691.74,-149.3 1691.74,-142.3"/>
</g>
<!-- AuthService -->
<g id="node20" class="node">
<title>AuthService</title>
<ellipse fill="#fdb462" stroke="black" cx="2684" cy="-66.8" rx="59.11" ry="18"/>
<text text-anchor="middle" x="2684" y="-62.6" font-family="Times,serif" font-size="14.00">AuthService</text>
</g>
<!-- AuthService&#45;&gt;AppModule -->
<g id="edge19" class="edge">
<title>AuthService&#45;&gt;AppModule</title>
<path fill="none" stroke="black" d="M2684,-84.96C2684,-107.15 2684,-141.8 2684,-141.8 2684,-141.8 1691.89,-141.8 1691.89,-141.8"/>
<polygon fill="black" stroke="black" points="1691.89,-138.3 1681.89,-141.8 1691.89,-145.3 1691.89,-138.3"/>
</g>
</g>
</svg>
